Coordinates
version=1
nRows=14
nColumns=40
inDegrees=yes

Units are S.I. units (second, meters, Newtons, ...)
If the header above contains a line with 'inDegrees', this indicates whether rotational values are in degrees (yes) or radians (no).

endheader
time	pelvis_tilt	pelvis_list	pelvis_rotation	pelvis_tx	pelvis_ty	pelvis_tz	hip_flexion_r	hip_adduction_r	hip_rotation_r	knee_angle_r	knee_angle_r_beta	ankle_angle_r	subtalar_angle_r	mtp_angle_r	hip_flexion_l	hip_adduction_l	hip_rotation_l	knee_angle_l	knee_angle_l_beta	ankle_angle_l	subtalar_angle_l	mtp_angle_l	lumbar_extension	lumbar_bending	lumbar_rotation	arm_flex_r	arm_add_r	arm_rot_r	elbow_flex_r	pro_sup_r	wrist_flex_r	wrist_dev_r	arm_flex_l	arm_add_l	arm_rot_l	elbow_flex_l	pro_sup_l	wrist_flex_l	wrist_dev_l
      2.25000000	      8.12823992	     -8.64351722	     -0.41883576	     -0.28051423	      1.07307594	     -1.05670146	     37.65635587	      2.08309508	     -6.19271544	     12.38354599	      0.21613365	    -11.03266845	      0.00000000	      0.00000000	     -0.21442239	     -4.85937027	     -8.72705831	     15.86802670	      0.27694931	     -6.37260552	      0.00000000	      0.00000000	    -14.23600446	      4.66844295	      4.62527225	     74.59038452	    -26.68742532	     39.67106997	     44.31329770	     82.99184335	      0.00000000	      0.00000000	     78.53879196	    -25.86665454	     51.49305356	     40.99039118	     81.76445081	      0.00000000	      0.00000000
      2.25500000	      8.12434487	     -8.61923315	     -0.43558611	     -0.28067505	      1.07296613	     -1.05672841	     37.65815682	      2.07820872	     -6.14497403	     12.39686892	      0.21636618	    -11.04856558	      0.00000000	      0.00000000	     -0.19398149	     -4.82908082	     -8.70616104	     15.88342794	      0.27721811	     -6.38081319	      0.00000000	      0.00000000	    -14.24635146	      4.64901876	      4.62618122	     74.67613099	    -26.72198608	     39.96826595	     44.29976816	     82.56151725	      0.00000000	      0.00000000	     78.60726034	    -25.90751308	     51.73850408	     41.01011531	     81.36961322	      0.00000000	      0.00000000
      2.26000000	      8.12352200	     -8.61777869	     -0.44140249	     -0.28082063	      1.07286141	     -1.05676282	     37.65054612	      2.08281650	     -6.22041791	     12.40228944	      0.21646079	    -11.04785501	      0.00000000	      0.00000000	     -0.14427741	     -4.83562730	     -8.75392414	     15.97747309	      0.27885951	     -6.31751030	      0.00000000	      0.00000000	    -14.25865048	      4.64331972	      4.67028784	     74.61819621	    -26.79384249	     39.78838375	     44.38400478	     82.94823284	      0.00000000	      0.00000000	     78.61529022	    -25.80116736	     51.58566539	     40.91030766	     81.68798348	      0.00000000	      0.00000000
      2.26500000	      8.11252565	     -8.60456671	     -0.45623587	     -0.28097697	      1.07275353	     -1.05677916	     37.66398078	      2.08051801	     -6.24676777	     12.45143409	      0.21731852	    -10.97930868	      0.00000000	      0.00000000	     -0.10966970	     -4.82132456	     -8.75146992	     16.01630001	      0.27953717	     -6.28053644	      0.00000000	      0.00000000	    -14.25969431	      4.64742810	      4.63267460	     74.68321538	    -26.70752338	     39.87254669	     44.27754770	     82.89552170	      0.00000000	      0.00000000	     78.56961710	    -25.88139829	     51.44883820	     40.99457176	     81.83995779	      0.00000000	      0.00000000
      2.27000000	      8.12244490	     -8.57605479	     -0.41255163	     -0.28124995	      1.07267558	     -1.05690867	     37.65560340	      2.02698320	     -6.28486923	     12.49627538	      0.21810115	    -10.96925515	      0.00000000	      0.00000000	     -0.05567106	     -4.78715078	     -8.66476515	     16.08880083	      0.28080255	     -6.27521448	      0.00000000	      0.00000000	    -14.29104339	      4.62870196	      4.61326405	     74.69382803	    -26.73656332	     39.86178160	     44.28202763	     82.83693330	      0.00000000	      0.00000000	     78.64333858	    -25.82604247	     51.52505889	     40.92096176	     81.87480684	      0.00000000	      0.00000000
      2.27500000	      8.10632101	     -8.56980618	     -0.47858205	     -0.28133750	      1.07256510	     -1.05679863	     37.67590131	      2.07078149	     -6.23649383	     12.53548720	      0.21878552	    -10.92092850	      0.00000000	      0.00000000	     -0.02709495	     -4.78555726	     -8.71566045	     16.12967141	      0.28151587	     -6.24041309	      0.00000000	      0.00000000	    -14.28384759	      4.59976590	      4.67881756	     74.62977137	    -26.74073981	     39.69817243	     44.32241803	     82.84379269	      0.00000000	      0.00000000	     78.70333361	    -25.80461968	     51.67785823	     40.86818741	     81.74922812	      0.00000000	      0.00000000
      2.28000000	      8.16537849	     -8.53506002	     -0.50307409	     -0.28148446	      1.07260677	     -1.05680965	     37.60810234	      2.06578449	     -6.19440922	     12.56168033	      0.21924268	    -10.93577690	      0.00000000	      0.00000000	     -0.07701118	     -4.74522678	     -8.76683685	     16.14442606	      0.28177339	     -6.26344492	      0.00000000	      0.00000000	    -14.36516941	      4.56516254	      4.67729801	     74.78459311	    -26.76773762	     40.18079122	     44.27507745	     82.26139195	      0.00000000	      0.00000000	     78.73239551	    -25.86179947	     51.77097488	     40.91490329	     81.25118981	      0.00000000	      0.00000000
      2.28500000	      8.16225050	     -8.50962400	     -0.53879086	     -0.28171803	      1.07248770	     -1.05673484	     37.62064215	      2.07045300	     -6.17810226	     12.60685183	      0.22003107	    -10.91165235	      0.00000000	      0.00000000	     -0.03513183	     -4.72446438	     -8.77800251	     16.21132404	      0.28294098	     -6.25942380	      0.00000000	      0.00000000	    -14.38420692	      4.53463803	      4.67453986	     74.86850730	    -26.72911642	     40.40483363	     44.22307611	     81.69340978	      0.00000000	      0.00000000	     78.80817386	    -25.90852494	     51.96986726	     40.89266354	     80.73031034	      0.00000000	      0.00000000
      2.29000000	      8.14708906	     -8.50427610	     -0.53040442	     -0.28189924	      1.07233438	     -1.05677879	     37.65451870	      2.06320995	     -6.24417220	     12.67852284	      0.22128197	    -10.83925994	      0.00000000	      0.00000000	      0.05293185	     -4.72749687	     -8.78582018	     16.32707704	      0.28496125	     -6.18223926	      0.00000000	      0.00000000	    -14.36163877	      4.53568631	      4.66879296	     74.88635119	    -26.79709663	     40.55021477	     44.27498265	     81.67460383	      0.00000000	      0.00000000	     78.85931945	    -25.90960893	     52.16348351	     40.88175563	     80.74496326	      0.00000000	      0.00000000
      2.29500000	      8.15275896	     -8.51021143	     -0.59204941	     -0.28207024	      1.07230945	     -1.05669258	     37.61801469	      2.12248823	     -6.25392539	     12.62541500	      0.22035506	    -10.92629506	      0.00000000	      0.00000000	      0.10132704	     -4.73553681	     -8.73586183	     16.45107714	      0.28712546	     -6.11491299	      0.00000000	      0.00000000	    -14.40637740	      4.53701800	      4.67482501	     74.80245361	    -26.64322251	     40.07330250	     44.23861936	     82.43141850	      0.00000000	      0.00000000	     78.75221774	    -25.96495706	     51.68447019	     40.92156807	     81.44809044	      0.00000000	      0.00000000
      2.30000000	      8.12497019	     -8.52749350	     -0.55610435	     -0.28225504	      1.07212758	     -1.05677977	     37.65973333	      2.11903662	     -6.22581226	     12.68228268	      0.22134759	    -10.97415485	      0.00000000	      0.00000000	      0.20229852	     -4.76663565	     -8.75649937	     16.55379987	      0.28891831	     -6.06920159	      0.00000000	      0.00000000	    -14.39453273	      4.56135470	      4.68602760	     74.73036536	    -26.72000904	     39.80461313	     44.35664665	     82.94402549	      0.00000000	      0.00000000	     78.74690090	    -25.86454094	     51.52387438	     40.91629051	     81.75239481	      0.00000000	      0.00000000
      2.30500000	      8.12719395	     -8.53423258	     -0.53772726	     -0.28242759	      1.07202725	     -1.05684052	     37.65397776	      2.12534772	     -6.29589224	     12.68960946	      0.22147547	    -11.00950045	      0.00000000	      0.00000000	      0.26061592	     -4.78213231	     -8.72427573	     16.66286963	      0.29082194	     -6.03075812	      0.00000000	      0.00000000	    -14.41511117	      4.59424500	      4.61012527	     74.81356092	    -26.59694458	     39.86937805	     44.23162817	     82.92020209	      0.00000000	      0.00000000	     78.69812459	    -25.94240426	     51.33817609	     40.97488996	     81.94662277	      0.00000000	      0.00000000
      2.31000000	      8.11969635	     -8.46144639	     -0.58392824	     -0.28269484	      1.07180217	     -1.05679308	     37.73171021	      2.08179939	     -6.26443101	     12.86501447	      0.22453686	    -10.84594324	      0.00000000	      0.00000000	      0.37390464	     -4.70733939	     -8.72397603	     16.85857532	      0.29423765	     -5.94170013	      0.00000000	      0.00000000	    -14.43344218	      4.49726378	      4.63087780	     74.98294118	    -26.67750646	     40.50723819	     44.19953710	     81.80098509	      0.00000000	      0.00000000	     78.98034105	    -25.98690109	     52.18940739	     40.90105256	     80.79323859	      0.00000000	      0.00000000
      2.31500000	      8.13251887	     -8.50247673	     -0.56879104	     -0.28290142	      1.07177670	     -1.05680442	     37.68501403	      2.12366592	     -6.32752155	     12.81416878	      0.22364944	    -10.96386660	      0.00000000	      0.00000000	      0.41020361	     -4.76553856	     -8.71445016	     16.92776702	      0.29544527	     -5.92999275	      0.00000000	      0.00000000	    -14.47417946	      4.53686967	      4.69294344	     74.79446840	    -26.71203852	     39.77869016	     44.36418679	     82.80411900	      0.00000000	      0.00000000	     78.85980422	    -25.83190004	     51.55528753	     40.83220027	     81.87326921	      0.00000000	      0.00000000
